# xmcd
#
# Track frame offsets:
#	150
#	16546
#	35122
#	56718
#	74875
#	104552
#	126296
#	142672
#	164595
#	179835
#
# Disc length: 2769 seconds
#
# Revision: 0
# Processed by: cddbd v1.5.2PL0 Copyright (c) Steve Scherf et al.
# Submitted via: EasyCDDAExtractor 10.0.2.1
#
DISCID=980acf0a
DTITLE=Gillian Welch - The Harrow and The Harvest
DYEAR=2011
DGENRE=Bluegrass
TTITLE0=Scarlet Town
TTITLE1=Dark Turn Of Mind
TTITLE2=The Way It Will Be
TTITLE3=The Way It Goes
TTITLE4=Tennessee
TTITLE5=Down Along The Dixie Line
TTITLE6=Six White Horses
TTITLE7=Hard Times
TTITLE8=Silver Dagger
TTITLE9=The Way The Whole Thing Ends
EXTD=
EXTT0=
EXTT1=
EXTT2=
EXTT3=
EXTT4=
EXTT5=
EXTT6=
EXTT7=
EXTT8=
EXTT9=
PLAYORDER=
